<svg width="143" height="30" viewBox="0 0 143 30" fill="none" xmlns="http://www.w3.org/2000/svg">
<path d="M10.4188 20H8.06719V10.5234H3.5125V20H1.16875V8.625H10.4188V20ZM12.9413 15.6953C12.9413 14.8568 13.1027 14.1094 13.4256 13.4531C13.7485 12.7969 14.2121 12.2891 14.8163 11.9297C15.4256 11.5703 16.1314 11.3906 16.9334 11.3906C18.0741 11.3906 19.0038 11.7396 19.7225 12.4375C20.4465 13.1354 20.8501 14.0833 20.9334 15.2812L20.9491 15.8594C20.9491 17.1562 20.5871 18.1979 19.8631 18.9844C19.1392 19.7656 18.1678 20.1562 16.9491 20.1562C15.7303 20.1562 14.7564 19.7656 14.0272 18.9844C13.3032 18.2031 12.9413 17.1406 12.9413 15.7969V15.6953ZM15.1991 15.8594C15.1991 16.6615 15.3501 17.276 15.6522 17.7031C15.9543 18.125 16.3866 18.3359 16.9491 18.3359C17.4959 18.3359 17.923 18.1276 18.2303 17.7109C18.5376 17.2891 18.6913 16.6172 18.6913 15.6953C18.6913 14.9089 18.5376 14.2995 18.2303 13.8672C17.923 13.4349 17.4907 13.2188 16.9334 13.2188C16.3814 13.2188 15.9543 13.4349 15.6522 13.8672C15.3501 14.2943 15.1991 14.9583 15.1991 15.8594ZM22.8544 18.1797C23.3648 17.638 23.7111 17.1016 23.8934 16.5703C24.0757 16.0391 24.1773 15.2865 24.1981 14.3125L24.2606 11.5469H30.4794V18.1797H31.6981V22.5391H29.4403V20H24.4325V22.5391H22.1278V18.1797H22.8544ZM25.5184 18.1797H28.2294V13.4141H26.4716L26.4559 14.4297C26.4091 15.9818 26.0966 17.2318 25.5184 18.1797ZM41.0175 20H38.7519V13.375H35.9238V20H33.6659V11.5469H41.0175V20ZM48.7978 11.5469H51.0556V20H48.7978V14.7812L45.9697 20H43.7041V11.5469H45.9697V16.7578L48.7978 11.5469ZM57.2578 18.3359C57.6745 18.3359 58.013 18.2214 58.2734 17.9922C58.5339 17.763 58.6693 17.4583 58.6797 17.0781H60.7969C60.7917 17.651 60.6354 18.1771 60.3281 18.6562C60.0208 19.1302 59.599 19.5 59.0625 19.7656C58.5312 20.026 57.9427 20.1562 57.2969 20.1562C56.0885 20.1562 55.1354 19.7734 54.4375 19.0078C53.7396 18.237 53.3906 17.1745 53.3906 15.8203V15.6719C53.3906 14.3698 53.737 13.3307 54.4297 12.5547C55.1224 11.7786 56.0729 11.3906 57.2812 11.3906C58.3385 11.3906 59.1849 11.6927 59.8203 12.2969C60.4609 12.8958 60.7865 13.6953 60.7969 14.6953H58.6797C58.6693 14.2578 58.5339 13.9036 58.2734 13.6328C58.013 13.3568 57.6693 13.2188 57.2422 13.2188C56.7161 13.2188 56.3177 13.4115 56.0469 13.7969C55.7812 14.1771 55.6484 14.7969 55.6484 15.6562V15.8906C55.6484 16.7604 55.7812 17.3854 56.0469 17.7656C56.3125 18.1458 56.7161 18.3359 57.2578 18.3359ZM67.9444 20C67.8402 19.7969 67.7647 19.5443 67.7178 19.2422C67.1709 19.8516 66.46 20.1562 65.585 20.1562C64.7569 20.1562 64.0694 19.9167 63.5225 19.4375C62.9808 18.9583 62.71 18.3542 62.71 17.625C62.71 16.7292 63.0407 16.0417 63.7022 15.5625C64.3689 15.0833 65.3298 14.8411 66.585 14.8359H67.6241V14.3516C67.6241 13.9609 67.5225 13.6484 67.3194 13.4141C67.1215 13.1797 66.8064 13.0625 66.3741 13.0625C65.9939 13.0625 65.6944 13.1536 65.4756 13.3359C65.2621 13.5182 65.1553 13.7682 65.1553 14.0859H62.8975C62.8975 13.5964 63.0485 13.1432 63.3506 12.7266C63.6527 12.3099 64.0798 11.9844 64.6319 11.75C65.184 11.5104 65.8037 11.3906 66.4912 11.3906C67.5329 11.3906 68.3584 11.6536 68.9678 12.1797C69.5824 12.7005 69.8897 13.4349 69.8897 14.3828V18.0469C69.8949 18.849 70.0069 19.4557 70.2256 19.8672V20H67.9444ZM66.0772 18.4297C66.4105 18.4297 66.7178 18.3568 66.9991 18.2109C67.2803 18.0599 67.4886 17.8594 67.6241 17.6094V16.1562H66.7803C65.6501 16.1562 65.0485 16.5469 64.9756 17.3281L64.9678 17.4609C64.9678 17.7422 65.0668 17.974 65.2647 18.1562C65.4626 18.3385 65.7334 18.4297 66.0772 18.4297ZM79.4747 13.3594H76.7637V20H74.4981V13.3594H71.8341V11.5469H79.4747V13.3594ZM83.9894 14.0234H85.6066C86.3357 14.0234 86.9764 14.1458 87.5284 14.3906C88.0805 14.6354 88.5024 14.987 88.7941 15.4453C89.0909 15.8984 89.2394 16.4271 89.2394 17.0312C89.2394 17.9219 88.9087 18.6406 88.2472 19.1875C87.5909 19.7292 86.6951 20 85.5597 20H81.7238V11.5469H83.9894V14.0234ZM83.9894 15.8359V18.1953H85.5909C86.0389 18.1953 86.3826 18.0911 86.6222 17.8828C86.8618 17.6745 86.9816 17.3906 86.9816 17.0312C86.9816 16.6667 86.8644 16.3776 86.63 16.1641C86.3956 15.9453 86.0493 15.8359 85.5909 15.8359H83.9894ZM94.9884 18.3359C95.4051 18.3359 95.7436 18.2214 96.0041 17.9922C96.2645 17.763 96.3999 17.4583 96.4103 17.0781H98.5275C98.5223 17.651 98.366 18.1771 98.0587 18.6562C97.7515 19.1302 97.3296 19.5 96.7931 19.7656C96.2619 20.026 95.6733 20.1562 95.0275 20.1562C93.8192 20.1562 92.866 19.7734 92.1681 19.0078C91.4702 18.237 91.1212 17.1745 91.1212 15.8203V15.6719C91.1212 14.3698 91.4676 13.3307 92.1603 12.5547C92.853 11.7786 93.8035 11.3906 95.0119 11.3906C96.0692 11.3906 96.9155 11.6927 97.5509 12.2969C98.1916 12.8958 98.5171 13.6953 98.5275 14.6953H96.4103C96.3999 14.2578 96.2645 13.9036 96.0041 13.6328C95.7436 13.3568 95.3999 13.2188 94.9728 13.2188C94.4468 13.2188 94.0483 13.4115 93.7775 13.7969C93.5119 14.1771 93.3791 14.7969 93.3791 15.6562V15.8906C93.3791 16.7604 93.5119 17.3854 93.7775 17.7656C94.0431 18.1458 94.4468 18.3359 94.9884 18.3359ZM107.823 11.5469V20H105.573V17.0781H104.144L102.519 20H100.23L102.073 16.6953C101.568 16.4609 101.178 16.1432 100.902 15.7422C100.631 15.3411 100.495 14.8854 100.495 14.375C100.495 13.5573 100.81 12.888 101.441 12.3672C102.076 11.8411 102.925 11.5677 103.988 11.5469H107.823ZM104.027 15.5H105.573V13.3594H104.105C103.704 13.3594 103.378 13.4661 103.128 13.6797C102.878 13.888 102.753 14.1432 102.753 14.4453C102.753 14.7474 102.873 14.9974 103.113 15.1953C103.352 15.3932 103.657 15.4948 104.027 15.5Z" fill="white"/>
<path d="M143 3L119 16.5L126.67 19.3407L138.5 8.25002L129.502 20.3896L129.509 20.3923L129.5 20.3896V27.0001L133.801 21.982L139.25 24.0001L143 3Z" fill="white"/>
</svg>
